# xmcd
#
# Track frame offsets: 
#        150
#        28784
#        46320
#        70940
#        89748
#        116527
#        136366
#        157499
#        181930
#        201014
#
# Disc length: 3068 seconds
#
# Revision: 0
# Processed by: cddbd v1.5.2PL0 Copyright (c) Steve Scherf et al.
# Submitted via: ExactAudioCopy v0.99pb5
#
DISCID=920bfa0a
DTITLE=Finch Brian - Eden
DYEAR=2007
DGENRE=Country
TTITLE0=Eden
TTITLE1=Ella Bella Rose
TTITLE2=Gotta Serve Somebody
TTITLE3=Outeniqua
TTITLE4=In My Dreams
TTITLE5=Christmas Day
TTITLE6=Out Of Love
TTITLE7=Watch The Water Flow
TTITLE8=That's What Love Is
TTITLE9=Dignity
EXTD=
EXTT0=
EXTT1=
EXTT2=
EXTT3=
EXTT4=
EXTT5=
EXTT6=
EXTT7=
EXTT8=
EXTT9=
PLAYORDER=
